<svg id="Layer_1" data-name="Layer 1" xmlns="http://www.w3.org/2000/svg" xmlns:xlink="http://www.w3.org/1999/xlink" viewBox="0 0 581.95 183.9"><defs><style>.cls-1{fill:none;}.cls-2{clip-path:url(#clip-path);}.cls-3,.cls-4{fill:#005cab;}.cls-3{fill-rule:evenodd;}.cls-5{fill:#00accd;}</style><clipPath id="clip-path"><rect class="cls-1" width="581.95" height="183.9"/></clipPath></defs><title>basicamente digital_academy</title><g class="cls-2"><path class="cls-3" d="M59.76,45a15.36,15.36,0,0,1,8.18,14.22,16.72,16.72,0,0,1-5.59,13,19.83,19.83,0,0,1-13.78,5.06H22.17V51.14H34.43V40.21H22.17V15.06H46.7A19.38,19.38,0,0,1,60.17,20a16.2,16.2,0,0,1,5.46,12.58A15.15,15.15,0,0,1,59.76,45M46.7,26.52H34.44V40.21H46.7a6.4,6.4,0,0,0,4.76-2,6.75,6.75,0,0,0,1.91-4.89,6.77,6.77,0,0,0-1.87-4.89,6.35,6.35,0,0,0-4.8-2m1.87,39.29a6.91,6.91,0,0,0,5.15-2.09,7.23,7.23,0,0,0,2.05-5.29,7.12,7.12,0,0,0-2.05-5.2,6.9,6.9,0,0,0-5.15-2.08H34.44V65.81Zm62.79-33h9.37V77.27H109.26V72q-5.16,6.5-14.49,6.49a20.15,20.15,0,0,1-15.24-6.8,23.49,23.49,0,0,1-6.36-16.67,23.48,23.48,0,0,1,6.36-16.66,20.15,20.15,0,0,1,15.24-6.8q9.33,0,14.49,6.49ZM88.11,64.08a11.84,11.84,0,0,0,8.8,3.51,12,12,0,0,0,8.84-3.51,12.22,12.22,0,0,0,3.51-9,12.22,12.22,0,0,0-3.51-9,12,12,0,0,0-8.84-3.51A11.84,11.84,0,0,0,88.11,46a12.3,12.3,0,0,0-3.47,9,12.31,12.31,0,0,0,3.47,9m52.6-18.63c0,1.19.78,2.15,2.35,2.89a31.35,31.35,0,0,0,5.74,2,58.42,58.42,0,0,1,6.75,2.13,13.15,13.15,0,0,1,5.73,4.31,12,12,0,0,1,2.36,7.56,12.2,12.2,0,0,1-5.11,10.53,21.24,21.24,0,0,1-12.76,3.69q-12,0-17.26-8.08l9.85-5.55c1.58,2.16,4,3.23,7.41,3.23q6.14,0,6.14-3.82c0-1.19-.79-2.15-2.36-2.89a33.46,33.46,0,0,0-5.73-2,59.1,59.1,0,0,1-6.75-2.22A13.89,13.89,0,0,1,131.33,53,11.1,11.1,0,0,1,129,45.72a12.41,12.41,0,0,1,4.84-10.35,19,19,0,0,1,12-3.78A20.14,20.14,0,0,1,155.73,34a17.76,17.76,0,0,1,5.43,4.61L151.38,44a7.32,7.32,0,0,0-5.52-2.16,6.48,6.48,0,0,0-3.68,1,3,3,0,0,0-1.47,2.66m29.67-12.62h11.46V77.27H170.38Zm42.47,45.69a23,23,0,0,1-23.46-23.47,23,23,0,0,1,23.46-23.46,23,23,0,0,1,11.82,3.11,21.24,21.24,0,0,1,6.59,5.91l-10,5.83a10.5,10.5,0,0,0-2.44-2,11.74,11.74,0,0,0-6.09-1.6,11.51,11.51,0,0,0-8.53,3.42,11.93,11.93,0,0,0-3.37,8.75,11.83,11.83,0,0,0,3.37,8.67,11.51,11.51,0,0,0,8.53,3.42,12.25,12.25,0,0,0,6.18-1.55,10.34,10.34,0,0,0,2.44-1.93l10,5.71a22.42,22.42,0,0,1-6.72,6,22.69,22.69,0,0,1-11.82,3.16m60.66-45.69h9.36V77.27H271.41V72q-5.16,6.5-14.49,6.49a20.15,20.15,0,0,1-15.24-6.8,23.52,23.52,0,0,1-6.35-16.67,23.52,23.52,0,0,1,6.35-16.66,20.15,20.15,0,0,1,15.24-6.8q9.33,0,14.49,6.49ZM250.25,64.08a12.85,12.85,0,0,0,17.65,0,12.22,12.22,0,0,0,3.51-9,12.22,12.22,0,0,0-3.51-9,12.85,12.85,0,0,0-17.65,0,12.34,12.34,0,0,0-3.46,9,12.35,12.35,0,0,0,3.46,9m91.54-32.49q7.63,0,12.22,5t4.58,13.33V77.27H347.12V50.7a9.11,9.11,0,0,0-1.95-6.22,7,7,0,0,0-5.51-2.22,7.52,7.52,0,0,0-6.09,2.57q-2.18,2.58-2.18,7.47v25H319.92V50.7A9.11,9.11,0,0,0,318,44.48a7,7,0,0,0-5.51-2.22,7.69,7.69,0,0,0-6.09,2.57q-2.26,2.58-2.26,7.47v25H292.64V32.83H302l2.1,4.72q4-6,12.35-6,8.18,0,12.09,6.4,4.44-6.41,13.24-6.4m35.63,28.18q2.31,8.34,12.53,8.35,6.57,0,9.95-4.44L409.15,69q-6.58,9.51-19.38,9.51-11,0-17.68-6.67a22.74,22.74,0,0,1-6.67-16.8A23,23,0,0,1,372,38.3q6.58-6.7,16.89-6.71A21.15,21.15,0,0,1,405,38.35a23.43,23.43,0,0,1,6.36,16.7,26.55,26.55,0,0,1-.45,4.72Zm-.18-8.89H399.9a10.76,10.76,0,0,0-4-6.76,11.59,11.59,0,0,0-7-2.22,12,12,0,0,0-7.64,2.36,11.25,11.25,0,0,0-4,6.62m66.2-19.29a16.06,16.06,0,0,1,12,4.89q4.75,4.89,4.76,13.51V77.27H448.77V51.41c0-3-.79-5.23-2.4-6.8A8.73,8.73,0,0,0,440,42.26,9.44,9.44,0,0,0,432.86,45c-1.77,1.84-2.66,4.59-2.66,8.27v24H418.73V32.83h9.37l2.1,5q4.17-6.21,13.24-6.22M494.8,43.86h-10V62.34a4.4,4.4,0,0,0,1.15,3.38,5.33,5.33,0,0,0,3.38,1.2,51.49,51.49,0,0,0,5.51,0V77.27Q483,78.6,478.13,75.05t-4.84-12.71V43.86h-7.73v-11h7.73v-9l11.47-3.47V32.83h10Zm15.81,15.91q2.31,8.34,12.53,8.35,6.57,0,10-4.44L542.33,69q-6.57,9.51-19.37,9.51-11,0-17.69-6.67a22.77,22.77,0,0,1-6.66-16.8,23,23,0,0,1,6.58-16.75q6.57-6.7,16.88-6.71a21.17,21.17,0,0,1,16.13,6.76,23.43,23.43,0,0,1,6.36,16.7,27.47,27.47,0,0,1-.44,4.72Zm-.18-8.89h22.66a10.76,10.76,0,0,0-4-6.76,11.61,11.61,0,0,0-7-2.22,12,12,0,0,0-7.64,2.36,11.2,11.2,0,0,0-4,6.62"/><rect class="cls-4" x="170.38" y="14.75" width="11.47" height="11.47"/><path class="cls-5" d="M60,126.83c0,11.77-8.35,21.34-20.12,21.34h-16V105.49h16c11.77,0,20.12,9.57,20.12,21.34m-3.17,0c0-10.12-6.89-18.29-17-18.29H27.11v36.58h12.8c10.06,0,17-8.17,17-18.29"/><path class="cls-5" d="M66.68,107.87a2.44,2.44,0,1,1,2.44,2.44,2.44,2.44,0,0,1-2.44-2.44m.92,9.82h3.05v30.48H67.6Z"/><path class="cls-5" d="M110.16,117.69v29c0,9.15-6.77,14.33-15.19,14.33-7.13,0-12.19-2.87-14.38-7.32l2.68-1.52c1.58,3.23,5,5.91,11.7,5.91,7.63,0,12.14-4.45,12.14-11.4V141.1A14.44,14.44,0,0,1,94,148.84,15.91,15.91,0,0,1,94,117a14.44,14.44,0,0,1,13.11,7.74v-7.07Zm-3,15.24a12.93,12.93,0,1,0-12.93,13,12.83,12.83,0,0,0,12.93-13"/><path class="cls-5" d="M118.64,107.87a2.44,2.44,0,1,1,2.43,2.44,2.43,2.43,0,0,1-2.43-2.44m.91,9.82h3v30.48h-3Z"/><path class="cls-5" d="M138.51,120.67v19.82c0,5.37,2.87,5.49,9.09,4.94v2.74c-8,1.22-12.2-.73-12.2-7.68V120.67h-6.7v-3h6.7v-7.62l3.11-.92v8.54h9.09v3Z"/><path class="cls-5" d="M183,117.69v30.48h-3.1v-6.89a14.66,14.66,0,0,1-13.11,7.56,15.91,15.91,0,0,1,0-31.82,14.66,14.66,0,0,1,13.11,7.56v-6.89Zm-3.1,15.24a12.9,12.9,0,1,0-12.87,13,12.78,12.78,0,0,0,12.87-13"/><rect class="cls-5" x="192.42" y="103.66" width="3.05" height="44.51"/><rect class="cls-5" x="549.86" y="67.05" width="11.47" height="11.46"/></g></svg>