<?xml version="1.0" encoding="UTF-8"?>
<!DOCTYPE svg PUBLIC "-//W3C//DTD SVG 1.1//EN" "http://www.w3.org/Graphics/SVG/1.1/DTD/svg11.dtd">
<!-- Creator: CorelDRAW X8 -->
<svg xmlns="http://www.w3.org/2000/svg" xml:space="preserve" width="303.81mm" height="70.0066mm" version="1.1" style="shape-rendering:geometricPrecision; text-rendering:geometricPrecision; image-rendering:optimizeQuality; fill-rule:evenodd; clip-rule:evenodd"
viewBox="0 0 5245 1209"
 xmlns:xlink="http://www.w3.org/1999/xlink">
 <defs>
  <style type="text/css">
   <![CDATA[
    .fil1 {fill:url(#id0)}
    .fil0 {fill:url(#id1);fill-rule:nonzero}
   ]]>
  </style>
  <linearGradient id="id0" gradientUnits="userSpaceOnUse" x1="598.174" y1="1208.5" x2="598.174" y2="-0.00517883">
   <stop offset="0" style="stop-opacity:1; stop-color:#006DFF"/>
   <stop offset="0.109804" style="stop-opacity:1; stop-color:#006DFF"/>
   <stop offset="0.94902" style="stop-opacity:1; stop-color:#00C6FF"/>
   <stop offset="1" style="stop-opacity:1; stop-color:#00C6FF"/>
  </linearGradient>
  <linearGradient id="id1" gradientUnits="userSpaceOnUse" xlink:href="#id0" x1="3335.39" y1="979.875" x2="3335.39" y2="228.628">
  </linearGradient>
 </defs>
 <g id="Camada_x0020_1">
  <metadata id="CorelCorpID_0Corel-Layer"/>
  <g id="_2392450275856">
   <path class="fil0" d="M1910 766l74 0 -18 -537 -95 0 -164 442 -166 -442 -97 0 -18 537 72 0 5 -448 165 441 73 0 163 -440 6 447zm251 -188c0,0 264,-2 265,-2 5,-17 9,-41 9,-62 0,-94 -55,-155 -151,-155 -110,0 -194,87 -194,215 0,120 80,205 199,205 50,0 98,-11 133,-32l-13 -66c-32,22 -77,33 -118,33 -76,0 -127,-55 -130,-132l0 -4zm4 -52c5,-51 45,-105 112,-105 62,0 90,39 90,98l0 6 -202 1zm628 128c0,-74 -62,-102 -119,-117 -49,-13 -91,-26 -91,-64 0,-32 27,-49 69,-49 33,0 80,11 113,29l18 -64c-36,-18 -82,-30 -127,-30 -79,0 -141,47 -141,120 0,72 61,100 117,115 46,13 93,26 93,66 0,35 -34,56 -79,56 -40,0 -88,-15 -121,-37l-18 64c36,22 89,37 138,37 86,0 148,-51 148,-126zm358 0c0,-74 -62,-102 -119,-117 -49,-13 -91,-26 -91,-64 0,-32 27,-49 69,-49 33,0 80,11 113,29l18 -64c-36,-18 -82,-30 -127,-30 -79,0 -141,47 -141,120 0,72 61,100 117,115 46,13 93,26 93,66 0,35 -34,56 -79,56 -40,0 -88,-15 -121,-37l-18 64c36,22 89,37 138,37 86,0 148,-51 148,-126zm152 -76c0,0 264,-2 265,-2 5,-17 8,-41 8,-62 0,-94 -54,-155 -150,-155 -110,0 -194,87 -194,215 0,120 80,205 199,205 50,0 97,-11 133,-32l-13 -66c-32,22 -77,33 -118,33 -76,0 -127,-55 -130,-132l0 -4zm3 -52c6,-51 46,-105 113,-105 62,0 90,39 90,98l0 6 -203 1zm703 240l0 -271c0,-85 -47,-136 -127,-136 -46,0 -92,24 -128,60l0 -60 -71 12 0 395 71 0 0 -296c22,-21 62,-43 103,-43 56,0 82,24 82,92l0 247 70 0zm179 -257c0,-55 34,-93 86,-93 60,0 90,37 90,89 0,55 -33,92 -84,92 -57,0 -92,-35 -92,-88zm34 276c17,2 47,4 72,4 79,0 117,10 117,53 0,48 -58,80 -132,80 -75,0 -125,-31 -125,-73 0,-29 29,-53 68,-64zm-53 -12c-54,10 -84,47 -84,92 0,70 79,115 183,115 119,0 212,-65 212,-152 0,-69 -54,-105 -172,-105 9,0 -36,0 -36,0 -74,0 -89,-14 -89,-38 0,-19 22,-35 38,-41 24,7 36,10 55,10 93,0 158,-66 158,-145 0,-29 -11,-66 -27,-81l76 14 -3 -70 -101 10c-25,-11 -60,-23 -102,-23 -102,0 -160,72 -160,149 0,55 24,97 66,122 -40,14 -66,44 -66,76 0,28 18,52 52,67zm440 -195c0,0 265,-2 266,-2 5,-17 8,-41 8,-62 0,-94 -55,-155 -150,-155 -111,0 -195,87 -195,215 0,120 81,205 200,205 50,0 97,-11 132,-32l-13 -66c-31,22 -76,33 -118,33 -75,0 -127,-55 -130,-132l0 -4zm4 -52c6,-51 46,-105 113,-105 62,0 89,39 89,98l0 6 -202 1zm447 -17c30,-54 66,-82 104,-82 19,0 41,6 63,18l18 -66c-21,-13 -48,-20 -75,-20 -49,0 -82,26 -110,70l0 -70 -70 12 0 395 70 0 0 -257z"/>
   <path class="fil1" d="M0 559c0,176 87,333 222,435l0 0 0 215 204 -114c55,15 112,24 172,24l0 0c331,0 598,-251 598,-560 0,-309 -267,-559 -598,-559l0 0c-330,0 -598,250 -598,559zm988 -156l-327 347 -155 -161 -297 165 326 -347 155 161 298 -165z"/>
  </g>
 </g>
</svg>
